# xmcd
#
# Track frame offsets:
#	150
#	21054
#	38043
#	55201
#	72266
#	89672
#	105738
#	116787
#	138358
#	153405
#	164041
#
# Disc length: 2272 seconds
#
# Revision: 0
# Processed by: cddbd v1.5.1PL2 Copyright (c) Steve Scherf et al.
# Submitted via: audiograbber 1.81.02
#
DISCID=9808de0b
DTITLE=Indigo Duck - Double Duck - Disc 2
DYEAR=2004
DGENRE=Blues
TTITLE0=The Indigo Shuffle
TTITLE1=Dust My Broom
TTITLE2=Move That Thing
TTITLE3=Malted Milk
TTITLE4=Kokomo
TTITLE5=Bad Luck Blues
TTITLE6=Homecoming
TTITLE7=Knockin' on Heaven's Door
TTITLE8=You Gotta Move
TTITLE9=Creole Belle
TTITLE10=Dadalada
EXTD=
EXTT0=
EXTT1=
EXTT2=
EXTT3=
EXTT4=
EXTT5=
EXTT6=
EXTT7=
EXTT8=
EXTT9=
EXTT10=
PLAYORDER=
